# Blender v2.79 (sub 0) OBJ File: ''
# www.blender.org
mtllib border.mtl
o Cube.003
v -0.997731 -0.119243 -1.862414
v -0.805377 -0.119243 -1.862414
v -0.805377 -0.119243 1.837586
v -0.997731 -0.119243 1.837585
v -0.997731 0.117243 -1.862415
v -0.805377 0.117243 -1.862413
v -0.805377 0.117243 1.837587
v -0.997731 0.117243 1.837586
v 1.000000 -0.118243 1.656449
v 1.000000 -0.118243 1.848803
v -1.000000 -0.118243 1.848803
v -1.000000 -0.118243 1.656449
v 1.000000 0.118243 1.656449
v 0.999999 0.118243 1.848803
v -1.000000 0.118243 1.848803
v -1.000000 0.118243 1.656449
v 1.000000 -0.118243 -1.877587
v 1.000000 -0.118243 -1.685233
v -1.000000 -0.118243 -1.685233
v -1.000000 -0.118243 -1.877587
v 1.000001 0.118243 -1.877587
v 0.999999 0.118243 -1.685233
v -1.000000 0.118243 -1.685233
v -1.000000 0.118243 -1.877587
v 0.813823 -0.119243 -1.862414
v 1.006177 -0.119243 -1.862414
v 1.006177 -0.119243 1.837586
v 0.813823 -0.119243 1.837585
v 0.813823 0.117243 -1.862415
v 1.006177 0.117243 -1.862413
v 1.006177 0.117243 1.837587
v 0.813823 0.117243 1.837586
vn 0.0000 -1.0000 0.0000
vn 0.0000 1.0000 -0.0000
vn 0.0000 0.0000 -1.0000
vn 1.0000 0.0000 -0.0000
vn -0.0000 -0.0000 1.0000
vn -1.0000 -0.0000 0.0000
usemtl Material.003
s off
f 1//1 2//1 3//1 4//1
f 5//2 8//2 7//2 6//2
f 1//3 5//3 6//3 2//3
f 2//4 6//4 7//4 3//4
f 3//5 7//5 8//5 4//5
f 5//6 1//6 4//6 8//6
usemtl Material
f 9//1 10//1 11//1 12//1
f 13//2 16//2 15//2 14//2
f 9//4 13//4 14//4 10//4
f 10//5 14//5 15//5 11//5
f 11//6 15//6 16//6 12//6
f 13//3 9//3 12//3 16//3
usemtl Material.001
f 17//1 18//1 19//1 20//1
f 21//2 24//2 23//2 22//2
f 17//4 21//4 22//4 18//4
f 18//5 22//5 23//5 19//5
f 19//6 23//6 24//6 20//6
f 21//3 17//3 20//3 24//3
usemtl Material.002
f 25//1 26//1 27//1 28//1
f 29//2 32//2 31//2 30//2
f 25//3 29//3 30//3 26//3
f 26//4 30//4 31//4 27//4
f 27//5 31//5 32//5 28//5
f 29//6 25//6 28//6 32//6
